<!DOCTYPE svg PUBLIC "-//W3C//DTD SVG 1.1//EN" "http://www.w3.org/Graphics/SVG/1.1/DTD/svg11.dtd">

<!-- Uploaded to: SVG Repo, www.svgrepo.com, Transformed by: SVG Repo Mixer Tools -->
<svg fill="white" width="100px" height="100px" viewBox="0 0 256.00 256.00" id="Flat" xmlns="http://www.w3.org/2000/svg" >

<g id="SVGRepo_bgCarrier" stroke-width="0"/>

<g id="SVGRepo_tracerCarrier" stroke-linecap="round" stroke-linejoin="round"/>

<g id="SVGRepo_iconCarrier"> 
 <g fill="white" opacity="1">
  <path d="M114.15243,39.98472,26.17616,191.977a16.00005,16.00005,0,0,0,13.84762,24.01535H215.97625A16,16,0,0,0,229.82386,191.977L141.84757,39.98472A16,16,0,0,0,114.15243,39.98472Z"/> 
</g> 
  <path d="M215.97632,223.99219H40.02368a23.99979,23.99979,0,0,1-20.771-36.02295L107.22852,35.97705h0a24.00024,24.00024,0,0,1,41.543,0L236.7478,187.96948a24,24,0,0,1-20.77148,36.02271Zm-94.90015-180L33.1001,195.98462a7.99982,7.99982,0,0,0,6.92358,12.00757H215.97632a8,8,0,0,0,6.92383-12.00757L134.92383,43.99219a8.00025,8.00025,0,0,0-13.84766,0Z"/>
  </g>

</svg>